#!OML:ASF X:\2005_08_12_Meinard\c3d\meinard.ASF
:FULLY-SPECIFIED
:DEGREES
622
root 3.8265 15.9494 0.369524 98.2932 -50.1886 -137.97
lowerback 68.2279 2.87805 11.1006
upperback 16.6542 3.73506 12.9284
thorax -2.90501 -2.97088 8.798
lowerneck -0.525401 -10.8184 -2.34227
upperneck -14.8642 -13.6138 16.5912
head -2.94019 -7.80313 5.63577
rclavicle -2.38542e-015 -1.71551e-013
rhumerus -33.0877 -17.7612 -58.7255
rradius 35.4499
rwrist 19.913
rhand -12.446 -11.592
rfingers 7.12502
rthumb 13.6272 -41.1259
lclavicle -2.38542e-015 -1.71551e-013
lhumerus -47.3542 4.18382 30.2429
lradius 27.9042
lwrist -224.569
lhand -8.5688 -2.09725
lfingers 7.12502
lthumb 17.3615 27.1474
rfemur -28.5634 2.26251 -15.3168
rtibia 25.3884
rfoot 153.144 127.227
rtoes -9.21885
lfemur 19.8549 5.07258 13.0633
ltibia 52.8829
lfoot -22.3466 29.1998
ltoes 17.8224
623
root 3.81796 15.9546 0.344938 99.0861 -49.6808 -138.52
lowerback 67.9189 2.83293 11.1144
upperback 16.3543 3.82346 12.6504
thorax -3.23616 -2.82342 8.42627
lowerneck -0.255004 -10.8031 -3.89687
upperneck -14.7074 -13.5743 17.5172
head -2.74195 -7.75179 6.1422
rclavicle 6.97734e-014 -6.36111e-014
rhumerus -33.4116 -18.0784 -59.4637
rradius 34.3864
rwrist 20.2284
rhand -13.2882 -12.0256
rfingers 7.12502
rthumb 12.8154 -41.6123
lclavicle 6.97734e-014 -6.36111e-014
lhumerus -46.8728 6.16264 27.5555
lradius 27.8007
lwrist -225.854
lhand -8.14068 -2.90143
lfingers 7.12502
lthumb 17.7735 26.3063
rfemur -30.2483 -6.83555 -10.6856
rtibia 29.9984
rfoot 165.142 137.756
rtoes -4.70509
lfemur 19.8785 4.47318 12.545
ltibia 52.7756
lfoot -22.0389 30.4807
ltoes 17.653
624
root 3.81142 15.973 0.326896 99.8138 -49.223 -139.003
lowerback 67.5345 2.73766 11.1085
upperback 16.078 3.82774 12.3362
thorax -3.52731 -2.70927 8.04941
lowerneck -0.303562 -10.7728 -5.24897
upperneck -14.3399 -13.5491 18.3218
head -2.45304 -7.69259 6.5543
rclavicle -1.15494e-013 -1.76918e-014
rhumerus -33.7729 -18.6675 -60.1168
rradius 33.7621
rwrist 19.9688
rhand -14.1389 -12.3962
rfingers 7.12502
rthumb 11.9952 -42.0325
lclavicle -1.15494e-013 -1.76918e-014
lhumerus -46.34 8.23455 24.9689
lradius 27.5064
lwrist -227.549
lhand -7.58638 -3.68063
lfingers 7.12502
lthumb 18.3068 25.4779
rfemur -32.3562 -12.0368 -7.26128
rtibia 35.5938
rfoot 170.081 145.792
rtoes 0.188365
lfemur 19.915 4.06824 12.1716
ltibia 52.6159
lfoot -21.7411 31.5091
ltoes 17.6269
625
root 3.80164 15.9915 0.298202 100.403 -48.8651 -139.326
lowerback 67.0697 2.59973 11.0526
upperback 15.8453 3.73227 12.0151
thorax -3.76296 -2.6414 7.7195
lowerneck -0.653775 -10.7342 -6.27272
upperneck -13.8133 -13.5339 18.9325
head -2.10892 -7.62801 6.83482
rclavicle 4.21423e-014 -5.56597e-015
rhumerus -34.1068 -19.5806 -60.681
rradius 33.5053
rwrist 19.3966
rhand -14.7602 -12.5348
rfingers 7.12502
rthumb 11.3961 -42.2051
lclavicle 4.21423e-014 -5.56597e-015
lhumerus -45.645 10.2048 22.6557
lradius 26.8712
lwrist -229.379
lhand -6.77879 -4.33872
lfingers 7.12502
lthumb 19.0836 24.7451
rfemur -34.3466 -15.1605 -4.67205
rtibia 41.6389
rfoot 171.501 152.446
rtoes 1.35255
lfemur 19.9152 3.76487 11.9521
ltibia 52.4385
lfoot -21.4679 32.2729
ltoes 17.7484
626
root 3.78875 16.0114 0.261151 100.884 -48.5966 -139.513
lowerback 66.6276 2.43849 10.9525
upperback 15.58 3.6023 11.6779
thorax -4.03516 -2.58539 7.40869
lowerneck -1.12638 -10.6942 -6.76351
upperneck -13.2238 -13.5256 19.2633
head -1.79195 -7.57071 6.94367
rclavicle 1.15295e-014 -3.97569e-015
rhumerus -34.5159 -20.8041 -61.1459
rradius 33.5268
rwrist 18.7241
rhand -15.039 -12.3664
rfingers 7.12502
rthumb 11.1271 -42.0514
lclavicle 1.15295e-014 -3.97569e-015
lhumerus -44.8192 11.922 20.6623
lradius 26.1511
lwrist -231.265
lhand -6.05466 -4.82417
lfingers 7.12502
lthumb 19.7798 24.1894
rfemur -36.0432 -17.2007 -2.56358
rtibia 47.8122
rfoot 171.48 157.98
rtoes 3.40822
lfemur 19.9212 3.41961 11.739
ltibia 52.151
lfoot -21.1285 32.9354
ltoes 17.8307
627
root 3.77839 16.044 0.230466 101.412 -48.4083 -139.663
lowerback 66.1962 2.34388 10.672
upperback 15.2732 3.46017 11.3884
thorax -4.38348 -2.54218 7.23619
lowerneck -1.61987 -10.6097 -6.99592
upperneck -12.546 -13.4687 19.3592
head -1.49362 -7.48241 6.94264
rclavicle 3.18055e-015 5.68524e-014
rhumerus -34.9456 -21.9922 -61.505
rradius 33.823
rwrist 18.1418
rhand -14.8608 -12.041
rfingers 7.12502
rthumb 11.299 -41.7166
lclavicle 3.18055e-015 5.68524e-014
lhumerus -44.1668 13.2784 19.1036
lradius 25.6254
lwrist -232.978
lhand -5.65019 -5.04899
lfingers 7.12502
lthumb 20.1686 23.924
rfemur -37.3796 -18.1855 -0.800198
rtibia 53.7932
rfoot 171.026 161.827
rtoes 8.1525
lfemur 19.8758 3.15235 11.4631
ltibia 51.7493
lfoot -20.6891 33.5395
ltoes 17.9714
628
root 3.76976 16.0911 0.210325 101.992 -48.2953 -139.798
lowerback 65.6634 2.26765 10.2614
upperback 15.0028 3.24194 11.1102
thorax -4.69969 -2.53534 7.15483
lowerneck -2.15001 -10.5016 -7.25683
upperneck -11.7807 -13.3864 19.4578
head -1.16577 -7.37395 6.94441
rclavicle -3.69739e-014 2.38542e-014
rhumerus -35.2953 -22.9837 -61.8902
rradius 34.2861
rwrist 17.7318
rhand -14.3649 -11.6636
rfingers 7.12502
rthumb 11.7773 -41.3125
lclavicle -3.69739e-014 2.38542e-014
lhumerus -43.835 14.5211 17.7789
lradius 25.5157
lwrist -234.648
lhand -5.67941 -4.83628
lfingers 7.12502
lthumb 20.1405 24.1397
rfemur -38.451 -18.7671 0.845925
rtibia 59.533
rfoot 170.506 164.798
rtoes 11.5404
lfemur 19.8193 2.89981 11.0593
ltibia 51.2047
lfoot -20.1868 34.1602
ltoes 18.0467
